<svg width="400" height="400" viewBox="0 0 400 400" xmlns="http://www.w3.org/2000/svg">
  <defs>
    <linearGradient id="lavGrad" x1="0%" y1="0%" x2="0%" y2="100%">
      <stop offset="0%" style="stop-color:#d6b5ff;stop-opacity:1" />
      <stop offset="100%" style="stop-color:#5a4a8a;stop-opacity:1" />
    </linearGradient>
  </defs>
  <path d="M200,100 L200,400" stroke="#3d4234" stroke-width="4" fill="none" />
  <g fill="url(#lavGrad)">
    
      <ellipse cx="215" cy="100" rx="12" ry="18" transform="rotate(30, 215, 100)" />
    
      <ellipse cx="185" cy="120" rx="12" ry="18" transform="rotate(-30, 185, 120)" />
    
      <ellipse cx="215" cy="140" rx="12" ry="18" transform="rotate(30, 215, 140)" />
    
      <ellipse cx="185" cy="160" rx="12" ry="18" transform="rotate(-30, 185, 160)" />
    
      <ellipse cx="215" cy="180" rx="12" ry="18" transform="rotate(30, 215, 180)" />
    
      <ellipse cx="185" cy="200" rx="12" ry="18" transform="rotate(-30, 185, 200)" />
    
      <ellipse cx="215" cy="220" rx="12" ry="18" transform="rotate(30, 215, 220)" />
    
      <ellipse cx="185" cy="240" rx="12" ry="18" transform="rotate(-30, 185, 240)" />
    
      <ellipse cx="215" cy="260" rx="12" ry="18" transform="rotate(30, 215, 260)" />
    
      <ellipse cx="185" cy="280" rx="12" ry="18" transform="rotate(-30, 185, 280)" />
    
      <ellipse cx="215" cy="300" rx="12" ry="18" transform="rotate(30, 215, 300)" />
    
      <ellipse cx="185" cy="320" rx="12" ry="18" transform="rotate(-30, 185, 320)" />
    
  </g>
  <path d="M200,350 Q160,330 130,380" stroke="#3d4234" stroke-width="3" fill="none" />
  <path d="M200,370 Q240,350 270,400" stroke="#3d4234" stroke-width="3" fill="none" />
</svg>