<svg width="400" height="400" viewBox="0 0 400 400" xmlns="http://www.w3.org/2000/svg">
  <defs>
    <radialGradient id="wildGrad" cx="50%" cy="50%" r="50%">
      <stop offset="0%" style="stop-color:#ffcc33;stop-opacity:1" />
      <stop offset="100%" style="stop-color:#e8a5a5;stop-opacity:1" />
    </radialGradient>
  </defs>
  <path d="M200,200 L200,400" stroke="#3d4234" stroke-width="5" />
  <g transform="translate(200, 200)">
    
      <path d="M0,0 Q30,-60 60,0 T0,60" fill="url(#wildGrad)" transform="rotate(0)" />
    
      <path d="M0,0 Q30,-60 60,0 T0,60" fill="url(#wildGrad)" transform="rotate(45)" />
    
      <path d="M0,0 Q30,-60 60,0 T0,60" fill="url(#wildGrad)" transform="rotate(90)" />
    
      <path d="M0,0 Q30,-60 60,0 T0,60" fill="url(#wildGrad)" transform="rotate(135)" />
    
      <path d="M0,0 Q30,-60 60,0 T0,60" fill="url(#wildGrad)" transform="rotate(180)" />
    
      <path d="M0,0 Q30,-60 60,0 T0,60" fill="url(#wildGrad)" transform="rotate(225)" />
    
      <path d="M0,0 Q30,-60 60,0 T0,60" fill="url(#wildGrad)" transform="rotate(270)" />
    
      <path d="M0,0 Q30,-60 60,0 T0,60" fill="url(#wildGrad)" transform="rotate(315)" />
    
    <circle cx="0" cy="0" r="20" fill="#5a2a2a" />
  </g>
</svg>